#!OML:ASF H:\Terrain\Patient Classification 1\Walking\liu\liu.ASF
:FULLY-SPECIFIED
:DEGREES
178
root 12.171091 25.081802 -18.381149 11.815770 9.946785 -2.708340
lowerback -6.855210 0.692712 0.173696
upperback -0.531096 0.800965 5.190810
thorax 3.250950 0.382335 5.305245
lowerneck -31.079401 -12.339840 -22.583401
upperneck 21.922951 -14.917125 23.172451
head 14.438416 -5.947800 9.612824
rclavicle 0.000000 0.000000
rhumerus -57.280048 17.237551 -118.471802
rradius 62.040749
rwrist -31.749899
rhand -45.468899 -38.127899
rfingers 10.687531
rthumb -5.429070 -83.051399
lclavicle 0.000000 0.000000
lhumerus -67.510498 -19.277248 144.609894
lradius 48.919647
lwrist 26.247299
lhand -18.956850 -38.448151
lfingers 10.687531
lthumb 20.163300 5.871300
rfemur -30.689400 4.305540 39.574348
rtibia 41.472599
rfoot -26.131651 2.880765
rtoes -25.490850
lfemur -39.402451 12.295231 -27.212700
ltibia 93.862198
lfoot -14.885865 15.767250
ltoes -11.083125
179
root 12.164295 25.069651 -18.203850 11.781420 9.683760 -3.088140
lowerback -6.852870 0.604378 0.459606
upperback -0.656367 0.671636 5.226390
thorax 3.130395 0.321993 5.171070
lowerneck -30.267151 -11.763570 -22.154551
upperneck 21.645599 -14.318701 23.168251
head 14.074591 -5.683725 9.644460
rclavicle -0.000000 -0.000000
rhumerus -56.417549 17.188950 -118.584000
rradius 62.235752
rwrist -31.484852
rhand -45.520950 -37.994251
rfingers 10.687531
rthumb -5.479245 -82.917000
lclavicle -0.000000 -0.000000
lhumerus -68.004601 -17.629799 143.716049
lradius 49.162201
lwrist 25.621199
lhand -18.989700 -38.047199
lfingers 10.687531
lthumb 20.131800 6.274320
rfemur -30.099148 4.716960 40.106850
rtibia 41.610451
rfoot -26.514751 2.868075
rtoes -24.181349
lfemur -41.335953 12.252299 -27.196201
ltibia 93.571953
lfoot -16.422749 15.990749
ltoes -10.511055
180
root 12.157261 25.048651 -18.023100 11.683485 9.547680 -3.294765
lowerback -6.798915 0.127947 0.360761
upperback -0.844763 0.049066 5.147550
thorax 2.941950 0.012732 5.104395
lowerneck -29.635201 -10.682280 -20.284050
upperneck 21.812099 -13.271940 22.299900
head 13.702711 -5.197860 9.192930
rclavicle 0.000000 0.000000
rhumerus -55.854599 17.818201 -119.372559
rradius 62.637302
rwrist -31.160849
rhand -45.610352 -37.314453
rfingers 10.687531
rthumb -5.565585 -82.235550
lclavicle 0.000000 0.000000
lhumerus -68.647804 -15.607650 142.249939
lradius 49.429802
lwrist 25.978050
lhand -18.399750 -37.232399
lfingers 10.687531
lthumb 20.700150 7.050975
rfemur -29.442150 5.206260 40.503750
rtibia 41.726101
rfoot -27.234001 2.373075
rtoes -23.510099
lfemur -43.132950 12.017040 -27.320549
ltibia 93.072754
lfoot -17.903700 15.975300
ltoes -5.154855
181
root 12.159555 25.037550 -17.832451 11.553405 9.234975 -3.236865
lowerback -7.074719 1.218976 0.721497
upperback -0.407936 1.466376 5.161935
thorax 3.470160 0.717779 5.013750
lowerneck -29.636850 -11.960566 -22.693800
upperneck 21.442501 -14.541105 23.356800
head 13.970339 -5.828595 9.769290
rclavicle -0.000000 -0.000000
rhumerus -54.989700 15.181200 -117.201599
rradius 63.319801
rwrist -31.268400
rhand -45.510899 -36.404099
rfingers 10.687531
rthumb -5.469585 -81.326851
lclavicle -0.000000 -0.000000
lhumerus -67.727699 -17.209200 143.473801
lradius 49.227898
lwrist 26.183849
lhand -19.934401 -36.842701
lfingers 10.687531
lthumb 19.221149 7.537320
rfemur -28.624950 5.533200 40.559250
rtibia 41.893650
rfoot -27.788250 2.252895
rtoes -22.124250
lfemur -44.578049 11.757376 -27.795002
ltibia 92.265152
lfoot -19.022400 16.420351
ltoes -6.011640
182
root 12.157980 25.033649 -17.649151 11.674140 8.879850 -3.332535
lowerback -6.312750 1.493682 1.011681
upperback -3.213420 1.936725 5.076345
thorax 0.141991 0.992198 4.731900
lowerneck -20.303699 -10.640924 -24.277651
upperneck 19.693201 -13.672695 24.453300
head 11.709855 -5.834685 10.660800
rclavicle -0.000000 0.000000
rhumerus -61.084953 15.622200 -117.746552
rradius 65.501999
rwrist -31.825201
rhand -45.745350 -37.360802
rfingers 10.687531
rthumb -5.695980 -82.279648
lclavicle -0.000000 0.000000
lhumerus -73.944450 -16.556999 144.470093
lradius 49.935600
lwrist 25.263298
lhand -22.212900 -37.800598
lfingers 10.687531
lthumb 17.024099 6.708674
rfemur -28.159798 5.981415 40.761902
rtibia 42.171448
rfoot -28.388401 2.092800
rtoes -21.219601
lfemur -46.317150 11.725545 -28.108801
ltibia 91.248749
lfoot -19.008301 17.220449
ltoes -11.900265
183
root 12.159929 25.007851 -17.468401 11.664975 8.650815 -3.321825
lowerback -6.035115 1.627590 0.979257
upperback -3.804840 2.144895 5.033475
thorax -0.631143 1.104277 4.700640
lowerneck -18.083549 -10.283731 -24.492149
upperneck 19.128300 -13.433626 24.669600
head 11.108250 -5.817375 10.831245
rclavicle 0.000000 -0.000000
rhumerus -62.545349 15.620250 -117.672752
rradius 67.228500
rwrist -32.423550
rhand -46.350899 -38.088898
rfingers 10.687531
rthumb -6.280770 -82.996651
lclavicle 0.000000 -0.000000
lhumerus -75.159904 -16.581150 144.834595
lradius 49.698296
lwrist 25.483349
lhand -23.033699 -38.900852
lfingers 10.687531
lthumb 16.232399 5.650890
rfemur -27.575100 6.216000 40.890301
rtibia 42.445648
rfoot -28.790400 1.916895
rtoes -21.693451
lfemur -47.911800 11.677560 -28.465500
ltibia 90.158699
lfoot -19.057800 17.568001
ltoes -11.595495
184
root 12.166590 24.977251 -17.277750 11.300295 8.505375 -3.082845
lowerback -5.987400 1.684770 0.642385
upperback -3.030435 2.207460 4.950615
thorax 0.128964 1.128597 4.815405
lowerneck -19.675650 -10.491435 -23.845501
upperneck 19.109550 -13.554945 24.332699
head 11.360745 -5.796915 10.555590
rclavicle -0.000000 -0.000000
rhumerus -60.402596 14.840639 -117.194252
rradius 67.410904
rwrist -32.493900
rhand -46.974602 -37.864647
rfingers 10.687531
rthumb -6.883019 -82.760101
lclavicle -0.000000 -0.000000
lhumerus -73.656898 -16.543949 144.535645
lradius 49.186649
lwrist 25.988850
lhand -23.322001 -36.876747
lfingers 10.687531
lthumb 15.954300 7.689540
rfemur -26.447098 6.269205 40.780052
rtibia 42.589500
rfoot -29.142601 1.821855
rtoes -21.279150
lfemur -48.938248 11.486085 -29.091450
ltibia 88.988548
lfoot -19.155600 18.006750
ltoes -4.352520
185
root 12.163620 24.963449 -17.089500 11.248395 8.318865 -3.292125
lowerback -6.306285 1.752165 0.747663
upperback -2.305680 2.261865 4.927185
thorax 1.052196 1.144529 4.752450
lowerneck -21.860701 -10.736535 -23.082750
upperneck 19.563900 -13.736746 23.983799
head 11.874434 -5.771895 10.249980
rclavicle 0.000000 -0.000000
rhumerus -57.941402 13.916070 -116.879547
rradius 67.321800
rwrist -32.481899
rhand -47.084850 -37.776299
rfingers 10.687531
rthumb -6.989490 -82.669495
lclavicle 0.000000 -0.000000
lhumerus -72.419998 -15.979199 143.815201
lradius 49.009354
lwrist 25.003801
lhand -24.044399 -35.485802
lfingers 10.687531
lthumb 15.257401 9.115305
rfemur -25.623150 6.571530 41.170799
rtibia 42.564598
rfoot -29.922449 1.480778
rtoes -20.881500
lfemur -50.387398 11.491905 -29.342850
ltibia 87.742203
lfoot -17.710350 19.357651
ltoes 5.429700
